<?xml version="1.0"?>
<svg xmlns="http://www.w3.org/2000/svg" viewBox="0 0 26 26" enable-background="new 0 0 26 26">
    <path d="M 14 0 L 14 2 L 18 2 L 18 0 L 14 0 z M 18 2 L 18 8 L 20 8 L 20 10 L 22 10 L 22 6 L 20 6 L 20 2 L 18 2 z M 22 10 L 22 14 L 24 14 L 24 10 L 22 10 z M 22 14 L 18 14 L 18 16 L 22 16 L 22 14 z M 18 14 L 18 12 L 16 12 L 16 14 L 18 14 z M 16 14 L 14 14 L 14 16 L 16 16 L 16 14 z M 14 16 L 12 16 L 12 18 L 14 18 L 14 16 z M 12 18 L 10 18 L 10 20 L 12 20 L 12 18 z M 10 20 L 8 20 L 8 22 L 10 22 L 10 20 z M 8 22 L 6 22 L 6 24 L 8 24 L 8 22 z M 6 24 L 4 24 L 4 22 L 2 22 L 2 24 L 2 26 L 4 26 L 6 26 L 6 24 z M 4 22 L 6 22 L 6 20 L 4 20 L 4 22 z M 6 20 L 8 20 L 8 18 L 6 18 L 6 20 z M 8 18 L 10 18 L 10 16 L 8 16 L 8 18 z M 10 16 L 12 16 L 12 14 L 10 14 L 10 16 z M 12 14 L 14 14 L 14 12 L 16 12 L 16 10 L 10 10 L 10 12 L 12 12 L 12 14 z M 10 10 L 10 6 L 8 6 L 8 10 L 10 10 z M 10 6 L 12 6 L 12 4 L 10 4 L 10 6 z M 12 4 L 14 4 L 14 2 L 12 2 L 12 4 z"/>
</svg>
